<svg width="8" height="8" viewBox="0 0 8 8" fill="none" xmlns="http://www.w3.org/2000/svg">
<path d="M4.20789 7.68623C3.78015 7.68623 3.3794 7.60533 3.00563 7.44354C2.63181 7.28174 2.30588 7.06182 2.02786 6.7838C1.74983 6.50577 1.52992 6.17984 1.36812 5.80602C1.20632 5.43225 1.12542 5.0315 1.12542 4.60376C1.12542 4.17602 1.20632 3.77527 1.36812 3.40151C1.52992 3.02768 1.74983 2.70176 2.02786 2.42373C2.30588 2.1457 2.63181 1.92579 3.00563 1.76399C3.3794 1.60219 3.78015 1.52129 4.20789 1.52129C4.63563 1.52129 5.03638 1.60219 5.41014 1.76399C5.78397 1.92579 6.10989 2.1457 6.38792 2.42373C6.66595 2.70176 6.88586 3.02768 7.04766 3.40151C7.20946 3.77527 7.29036 4.17602 7.29036 4.60376C7.29036 5.0315 7.20946 5.43225 7.04766 5.80602C6.88586 6.17984 6.66595 6.50577 6.38792 6.7838C6.10989 7.06182 5.78397 7.28174 5.41014 7.44354C5.03638 7.60533 4.63563 7.68623 4.20789 7.68623ZM5.28603 6.06413L5.66826 5.6819L4.47987 4.49361V2.79054H3.93591V4.71392L5.28603 6.06413ZM1.94272 0.93689L2.32495 1.31903L0.923152 2.72083L0.541016 2.3386L1.94272 0.93689ZM6.47305 0.93689L7.87476 2.3386L7.49263 2.72083L6.09083 1.31903L6.47305 0.93689ZM4.20789 7.14227C4.91275 7.14227 5.51205 6.8954 6.00579 6.40166C6.49953 5.90792 6.7464 5.30862 6.7464 4.60376C6.7464 3.8989 6.49953 3.2996 6.00579 2.80587C5.51205 2.31213 4.91275 2.06526 4.20789 2.06526C3.50303 2.06526 2.90373 2.31213 2.40999 2.80587C1.91625 3.2996 1.66938 3.8989 1.66938 4.60376C1.66938 5.30862 1.91625 5.90792 2.40999 6.40166C2.90373 6.8954 3.50303 7.14227 4.20789 7.14227Z" fill="#1F1F1F"/>
</svg>
